<?xml version="1.0" standalone="yes"?>
<svg xmlns="http://www.w3.org/2000/svg" width="500" height="500">
<path style="fill:#ffffff; stroke:none;" d="M0 0L0 500L500 500L500 0L0 0z"/>
<path style="fill:#9dbfdf; stroke:none;" d="M112 150L112 151L120 151L112 150z"/>
<path style="fill:#5d95ca; stroke:none;" d="M120 150L120 151L123 151L120 150z"/>
<path style="fill:#9dbfdf; stroke:none;" d="M123 150L123 151L131 151L123 150M104.667 151.333L105.333 151.667L104.667 151.333z"/>
<path style="fill:#5d95ca; stroke:none;" d="M106.667 151.333L107.333 151.667L106.667 151.333z"/>
<path style="fill:#2f77bb; stroke:none;" d="M108 151L109 152L108 151z"/>
<path style="fill:#015bad; stroke:none;" d="M109 151.439C76.1145 156.563 47.9528 175.206 32.3202 205C6.00553 255.153 30.0113 322.439 83 343.254C100.86 350.27 123.997 351.552 143 348.561C155.477 346.597 167.648 340.691 178 333.656C249.123 285.322 227.363 168.167 141 152.751C130.694 150.911 119.446 149.812 109 151.439z"/>
<path style="fill:#2f77bb; stroke:none;" d="M134 151L135 152L134 151z"/>
<path style="fill:#5d95ca; stroke:none;" d="M135.667 151.333L136.333 151.667L135.667 151.333z"/>
<path style="fill:#9dbfdf; stroke:none;" d="M137.667 151.333L138.333 151.667L137.667 151.333M99 152L100 153L99 152z"/>
<path style="fill:#5d95ca; stroke:none;" d="M100.667 152.333L101.333 152.667L100.667 152.333z"/>
<path style="fill:#2f77bb; stroke:none;" d="M102.667 152.333L103.333 152.667L102.667 152.333M139.667 152.333L140.333 152.667L139.667 152.333z"/>
<path style="fill:#5d95ca; stroke:none;" d="M141.667 152.333L142.333 152.667L141.667 152.333z"/>
<path style="fill:#9dbfdf; stroke:none;" d="M143 152L144 153L143 152M95 153L96 154L95 153z"/>
<path style="fill:#5d95ca; stroke:none;" d="M96 153L97 154L96 153z"/>
<path style="fill:#2f77bb; stroke:none;" d="M97 153L98 154L97 153M145 153L146 154L145 153z"/>
<path style="fill:#5d95ca; stroke:none;" d="M146 153L147 154L146 153z"/>
<path style="fill:#9dbfdf; stroke:none;" d="M147 153L148 154L147 153M91.6667 154.333L92.3333 154.667L91.6667 154.333z"/>
<path style="fill:#5d95ca; stroke:none;" d="M93 154L94 155L93 154z"/>
<path style="fill:#2f77bb; stroke:none;" d="M94 154L95 155L94 154M148 154L149 155L148 154z"/>
<path style="fill:#5d95ca; stroke:none;" d="M149 154L150 155L149 154z"/>
<path style="fill:#9dbfdf; stroke:none;" d="M150.667 154.333L151.333 154.667L150.667 154.333M89 155L90 156L89 155z"/>
<path style="fill:#2f77bb; stroke:none;" d="M90 155L91 156L90 155M152 155L153 156L152 155z"/>
<path style="fill:#5d95ca; stroke:none;" d="M153 155L154 156L153 155z"/>
<path style="fill:#9dbfdf; stroke:none;" d="M86 156L87 157L86 156z"/>
<path style="fill:#5d95ca; stroke:none;" d="M87 156L88 157L87 156z"/>
<path style="fill:#2f77bb; stroke:none;" d="M155 156L156 157L155 156z"/>
<path style="fill:#9dbfdf; stroke:none;" d="M156.667 156.333L157.333 156.667L156.667 156.333M83 157L84 158L83 157z"/>
<path style="fill:#5d95ca; stroke:none;" d="M84 157L85 158L84 157z"/>
<path style="fill:#2f77bb; stroke:none;" d="M85 157L86 158L85 157M158 157L159 158L158 157z"/>
<path style="fill:#9dbfdf; stroke:none;" d="M159 157L160 158L159 157M81 158L82 159L81 158z"/>
<path style="fill:#2f77bb; stroke:none;" d="M82 158L83 159L82 158M160 158L161 159L160 158z"/>
<path style="fill:#9dbfdf; stroke:none;" d="M161 158L162 159L161 158z"/>
<path style="fill:#5d95ca; stroke:none;" d="M79 159L80 160L79 159z"/>
<path style="fill:#2f77bb; stroke:none;" d="M80 159L81 160L80 159M162 159L163 160L162 159z"/>
<path style="fill:#5d95ca; stroke:none;" d="M163 159L164 160L163 159z"/>
<path style="fill:#9dbfdf; stroke:none;" d="M77 160L78 161L77 160z"/>
<path style="fill:#5d95ca; stroke:none;" d="M165 160L166 161L165 160M75 161L76 162L75 161z"/>
<path style="fill:#2f77bb; stroke:none;" d="M76 161L77 162L76 161M166 161L167 162L166 161z"/>
<path style="fill:#5d95ca; stroke:none;" d="M167 161L168 162L167 161z"/>
<path style="fill:#9dbfdf; stroke:none;" d="M168 161L169 162L168 161M73 162L74 163L73 162z"/>
<path style="fill:#5d95ca; stroke:none;" d="M169 162L170 163L169 162z"/>
<path style="fill:#9dbfdf; stroke:none;" d="M71 163L72 164L71 163z"/>
<path style="fill:#2f77bb; stroke:none;" d="M72 163L73 164L72 163M170 163L171 164L170 163z"/>
<path style="fill:#9dbfdf; stroke:none;" d="M171 163L172 164L171 163z"/>
<path style="fill:#2f77bb; stroke:none;" d="M70 164L71 165L70 164M172 164L173 165L172 164z"/>
<path style="fill:#9dbfdf; stroke:none;" d="M173 164L174 165L173 164M68 165L69 166L68 165z"/>
<path style="fill:#5d95ca; stroke:none;" d="M174 165L175 166L174 165z"/>
<path style="fill:#9dbfdf; stroke:none;" d="M66 166L67 167L66 166z"/>
<path style="fill:#2f77bb; stroke:none;" d="M67 166L68 167L67 166M175 166L176 167L175 166z"/>
<path style="fill:#9dbfdf; stroke:none;" d="M176 166L177 167L176 166z"/>
<path style="fill:#5d95ca; stroke:none;" d="M65 167L66 168L65 167M177 167L178 168L177 167z"/>
<path style="fill:#9dbfdf; stroke:none;" d="M63 168L64 169L63 168z"/>
<path style="fill:#2f77bb; stroke:none;" d="M64 168L65 169L64 168M178 168L179 169L178 168z"/>
<path style="fill:#9dbfdf; stroke:none;" d="M179 168L180 169L179 168M62 169L63 170L62 169z"/>
<path style="fill:#5d95ca; stroke:none;" d="M180 169L181 170L180 169M61 170L62 171L61 170z"/>
<path style="fill:#2f77bb; stroke:none;" d="M181 170L182 171L181 170z"/>
<path style="fill:#9dbfdf; stroke:none;" d="M182 170L183 171L182 170M59 171L60 172L59 171z"/>
<path style="fill:#2f77bb; stroke:none;" d="M60 171L61 172L60 171z"/>
<path style="fill:#9dbfdf; stroke:none;" d="M183 171L184 172L183 171M58 172L59 173L58 172z"/>
<path style="fill:#5d95ca; stroke:none;" d="M184 172L185 173L184 172M57 173L58 174L57 173z"/>
<path style="fill:#2f77bb; stroke:none;" d="M185 173L186 174L185 173z"/>
<path style="fill:#5d95ca; stroke:none;" d="M56 174L57 175L56 174z"/>
<path style="fill:#2f77bb; stroke:none;" d="M186 174L187 175L186 174M55 175L56 176L55 175M187 175L188 176L187 175z"/>
<path style="fill:#9dbfdf; stroke:none;" d="M188 175L189 176L188 175z"/>
<path style="fill:#2f77bb; stroke:none;" d="M54 176L55 177L54 176z"/>
<path style="fill:#9dbfdf; stroke:none;" d="M189 176L190 177L189 176M52 177L53 178L52 177z"/>
<path style="fill:#2f77bb; stroke:none;" d="M53 177L54 178L53 177z"/>
<path style="fill:#9dbfdf; stroke:none;" d="M190 177L191 178L190 177M51 178L52 179L51 178M191 178L192 179L191 178M50 179L51 180L50 179M192 179L193 180L192 179M49 180L50 181L49 180M193 180L194 181L193 180M48 181L47 183L48 181M194 181L195 182L194 181z"/>
<path style="fill:#2f77bb; stroke:none;" d="M48 182L49 183L48 182z"/>
<path style="fill:#9dbfdf; stroke:none;" d="M195 182L196 183L195 182z"/>
<path style="fill:#2f77bb; stroke:none;" d="M47 183L48 184L47 183z"/>
<path style="fill:#9dbfdf; stroke:none;" d="M196 183L198 185L196 183z"/>
<path style="fill:#2f77bb; stroke:none;" d="M46 184L47 185L46 184M196 184L197 185L196 184z"/>
<path style="fill:#5d95ca; stroke:none;" d="M45 185L46 186L45 185z"/>
<path style="fill:#2f77bb; stroke:none;" d="M197 185L198 186L197 185z"/>
<path style="fill:#5d95ca; stroke:none;" d="M44 186L45 187L44 186z"/>
<path style="fill:#2f77bb; stroke:none;" d="M198 186L199 187L198 186z"/>
<path style="fill:#9dbfdf; stroke:none;" d="M43 187L44 188L43 187z"/>
<path style="fill:#5d95ca; stroke:none;" d="M199 187L200 188L199 187z"/>
<path style="fill:#9dbfdf; stroke:none;" d="M42 188L43 189L42 188M200 188L201 189L200 188z"/>
<path style="fill:#2f77bb; stroke:none;" d="M42 189L43 190L42 189z"/>
<path style="fill:#9dbfdf; stroke:none;" d="M201 189L202 190L201 189z"/>
<path style="fill:#2f77bb; stroke:none;" d="M41 190L42 191L41 190z"/>
<path style="fill:#9dbfdf; stroke:none;" d="M40 191L41 192L40 191z"/>
<path style="fill:#5d95ca; stroke:none;" d="M202 191L203 192L202 191z"/>
<path style="fill:#9dbfdf; stroke:none;" d="M39 192L40 193L39 192M203 192L204 193L203 192z"/>
<path style="fill:#2f77bb; stroke:none;" d="M39 193L40 194L39 193z"/>
<path style="fill:#9dbfdf; stroke:none;" d="M204 193L205 194L204 193z"/>
<path style="fill:#5d95ca; stroke:none;" d="M38 194L39 195L38 194z"/>
<path style="fill:#2f77bb; stroke:none;" d="M204 194L205 195L204 194z"/>
<path style="fill:#9dbfdf; stroke:none;" d="M37 195L38 196L37 195M205 195L206 196L205 195M206 196L207 197L206 196z"/>
<path style="fill:#5d95ca; stroke:none;" d="M36 197L37 198L36 197z"/>
<path style="fill:#2f77bb; stroke:none;" d="M206 197L207 198L206 197z"/>
<path style="fill:#9dbfdf; stroke:none;" d="M35 198L36 199L35 198M207 198L208 199L207 198z"/>
<path style="fill:#2f77bb; stroke:none;" d="M35 199L36 200L35 199M207 199L208 200L207 199z"/>
<path style="fill:#9dbfdf; stroke:none;" d="M34 200L35 201L34 200z"/>
<path style="fill:#5d95ca; stroke:none;" d="M208 200L209 201L208 200z"/>
<path style="fill:#2f77bb; stroke:none;" d="M34 201L35 202L34 201z"/>
<path style="fill:#9dbfdf; stroke:none;" d="M209 201L210 202L209 201M33 202L34 203L33 202z"/>
<path style="fill:#2f77bb; stroke:none;" d="M115 202L116 203L115 202z"/>
<path style="fill:#5d95ca; stroke:none;" d="M116 202L117 203L116 202z"/>
<path style="fill:#9dbfdf; stroke:none;" d="M117 202L117 203L126 203L117 202z"/>
<path style="fill:#2f77bb; stroke:none;" d="M126 202L127 203L126 202z"/>
<path style="fill:#5d95ca; stroke:none;" d="M209 202L210 203L209 202z"/>
<path style="fill:#2f77bb; stroke:none;" d="M113 203L114 204L113 203z"/>
<path style="fill:#9dbfdf; stroke:none;" d="M114 203L115 204L114 203z"/>
<path style="fill:#ffffff; stroke:none;" d="M115.043 203.742C100.822 209.508 114.639 226.126 126.985 221.258C141.454 215.551 127.597 198.653 115.043 203.742z"/>
<path style="fill:#5d95ca; stroke:none;" d="M128 203L129 204L128 203z"/>
<path style="fill:#9dbfdf; stroke:none;" d="M210 203L211 204L210 203z"/>
<path style="fill:#5d95ca; stroke:none;" d="M32 204L33 205L32 204M112 204L113 205L112 204z"/>
<path style="fill:#9dbfdf; stroke:none;" d="M129 204L130 205L129 204z"/>
<path style="fill:#2f77bb; stroke:none;" d="M210 204L211 205L210 204z"/>
<path style="fill:#9dbfdf; stroke:none;" d="M31 205L32 206L31 205z"/>
<path style="fill:#5d95ca; stroke:none;" d="M111 205L112 206L111 205z"/>
<path style="fill:#9dbfdf; stroke:none;" d="M130 205L132 207L130 205z"/>
<path style="fill:#2f77bb; stroke:none;" d="M131 205L132 206L131 205z"/>
<path style="fill:#9dbfdf; stroke:none;" d="M211 205L212 206L211 205z"/>
<path style="fill:#5d95ca; stroke:none;" d="M31 206L32 207L31 206z"/>
<path style="fill:#2f77bb; stroke:none;" d="M110 206L111 207L110 206M211 206L212 207L211 206z"/>
<path style="fill:#9dbfdf; stroke:none;" d="M110 207L111 208L110 207z"/>
<path style="fill:#5d95ca; stroke:none;" d="M132 207L133 208L132 207z"/>
<path style="fill:#9dbfdf; stroke:none;" d="M212 207L213 208L212 207z"/>
<path style="fill:#5d95ca; stroke:none;" d="M30 208L31 209L30 208z"/>
<path style="fill:#2f77bb; stroke:none;" d="M109 208L110 209L109 208z"/>
<path style="fill:#9dbfdf; stroke:none;" d="M132 208L133 209L132 208z"/>
<path style="fill:#2f77bb; stroke:none;" d="M212 208L213 209L212 208z"/>
<path style="fill:#9dbfdf; stroke:none;" d="M109 209L110 210L109 209z"/>
<path style="fill:#2f77bb; stroke:none;" d="M133 209L134 210L133 209z"/>
<path style="fill:#9dbfdf; stroke:none;" d="M213 209L214 210L213 209M29 210L30 211L29 210z"/>
<path style="fill:#5d95ca; stroke:none;" d="M133 210L133 215L134 215L133 210z"/>
<path style="fill:#2f77bb; stroke:none;" d="M213 210L214 211L213 210M29 211L30 212L29 211M82 211L83 212L82 211z"/>
<path style="fill:#5d95ca; stroke:none;" d="M83 211L84 212L83 211z"/>
<path style="fill:#9dbfdf; stroke:none;" d="M84 211L84 212L94 212L84 211z"/>
<path style="fill:#5d95ca; stroke:none;" d="M94 211L95 212L94 211z"/>
<path style="fill:#2f77bb; stroke:none;" d="M95 211L96 212L95 211z"/>
<path style="fill:#9dbfdf; stroke:none;" d="M214.333 211.667L214.667 212.333L214.333 211.667M28 212L29 213L28 212z"/>
<path style="fill:#5d95ca; stroke:none;" d="M81 212L82 213L81 212z"/>
<path style="fill:#ffffff; stroke:none;" d="M82.0586 213.028C77.0158 215.79 78 222.159 78 227C78 236.809 81.0993 253.086 76.6821 261.995C68.8934 277.705 54.3239 256.384 47.7423 266.059C43.0968 272.889 47.2203 281.515 54.0039 284.647C64.0766 289.298 78.1563 288.971 88 283.862C104.625 275.233 100 251.535 100 236C100 230.191 101.271 222.617 99.4861 217.044C97.5555 211.016 86.9447 210.352 82.0586 213.028z"/>
<path style="fill:#9dbfdf; stroke:none;" d="M96 212L97 213L96 212z"/>
<path style="fill:#2f77bb; stroke:none;" d="M108 212L109 213L108 212M28 213L29 214L28 213z"/>
<path style="fill:#9dbfdf; stroke:none;" d="M80 213L81 214L80 213z"/>
<path style="fill:#2f77bb; stroke:none;" d="M98 213L99 214L98 213M214 213L215 214L214 213z"/>
<path style="fill:#9dbfdf; stroke:none;" d="M27 214L28 215L27 214M79 214L80 215L79 214M98 214L99 215L98 214M215 214L216 215L215 214z"/>
<path style="fill:#5d95ca; stroke:none;" d="M27 215L28 216L27 215M78 215L79 216L78 215z"/>
<path style="fill:#9dbfdf; stroke:none;" d="M99 215L100 216L99 215M109 215L110 216L109 215z"/>
<path style="fill:#2f77bb; stroke:none;" d="M133 215L134 216L133 215M215 215L216 216L215 215M27 216L28 217L27 216M100 216L101 217L100 216M109 216L110 217L109 216z"/>
<path style="fill:#9dbfdf; stroke:none;" d="M132 216L133 217L132 216M216.333 216.667L216.667 217.333L216.333 216.667M26 217L27 218L26 217z"/>
<path style="fill:#2f77bb; stroke:none;" d="M77 217L78 218L77 217z"/>
<path style="fill:#9dbfdf; stroke:none;" d="M100 217L100 265L101 265C101 251.474 105.209 229.414 100 217M110 217L111 218L110 217z"/>
<path style="fill:#2f77bb; stroke:none;" d="M132 217L133 218L132 217z"/>
<path style="fill:#5d95ca; stroke:none;" d="M26 218L27 219L26 218M77 218L78 219L77 218z"/>
<path style="fill:#2f77bb; stroke:none;" d="M110 218L111 219L110 218z"/>
<path style="fill:#5d95ca; stroke:none;" d="M131 218L132 219L131 218M216 218L217 219L216 218z"/>
<path style="fill:#2f77bb; stroke:none;" d="M26 219L27 220L26 219z"/>
<path style="fill:#9dbfdf; stroke:none;" d="M77 219L77 261L78 261C78 249.043 81.6107 229.988 77 219z"/>
<path style="fill:#2f77bb; stroke:none;" d="M111 219L112 220L111 219z"/>
<path style="fill:#9dbfdf; stroke:none;" d="M130 219L131 220L130 219M25 220L26 221L25 220z"/>
<path style="fill:#2f77bb; stroke:none;" d="M112 220L113 221L112 220z"/>
<path style="fill:#9dbfdf; stroke:none;" d="M129 220L130 221L129 220M217 220L218 221L217 220M259 220L259 221L288 221L259 220M302 220L302 221L318 221L302 220M343 220L343 221L359 221L343 220M383 220L383 221L409 221L383 220M434 220L434 221L466 221L434 220z"/>
<path style="fill:#5d95ca; stroke:none;" d="M25 221L26 222L25 221z"/>
<path style="fill:#2f77bb; stroke:none;" d="M113 221L114 222L113 221z"/>
<path style="fill:#5d95ca; stroke:none;" d="M114 221L115 222L114 221z"/>
<path style="fill:#9dbfdf; stroke:none;" d="M127 221L128 222L127 221z"/>
<path style="fill:#2f77bb; stroke:none;" d="M128 221L129 222L128 221M217 221L218 222L217 221z"/>
<path style="fill:#5d95ca; stroke:none;" d="M255 221L256 222L255 221z"/>
<path style="fill:#2f77bb; stroke:none;" d="M256 221L257 222L256 221z"/>
<path style="fill:#015bad; stroke:none;" d="M246 266C246 269.512 244.693 276.372 247.028 279.258C249.232 281.982 254.938 281 258 281C267.117 281.001 281.664 283.091 288.581 275.66C295.73 267.978 293.535 248.247 282.999 244.8C279.078 243.517 267.002 244.319 265.346 239.755C264.183 236.553 269.065 236.104 271.001 236.019C276.538 235.778 288.239 238.742 288.941 230.981C289.17 228.453 289.651 223.813 287.397 222.028C284.779 219.954 279.122 221 276 221C266.632 221 250.355 218.357 246.653 230.004C244.274 237.487 244.415 251.559 252.015 255.721C255.322 257.532 272.903 257.948 272.079 262.88C271.133 268.541 250.366 266 246 266z"/>
<path style="fill:#5d95ca; stroke:none;" d="M288 221L289 222L288 221z"/>
<path style="fill:#2f77bb; stroke:none;" d="M301 221L302 222L301 221z"/>
<path style="fill:#015bad; stroke:none;" d="M342 254L341 254C335.225 239.114 326.048 239.474 320 254C317.28 244.797 322.554 231.766 318.397 223.318C316.556 219.577 303.444 219.577 301.603 223.318C299.841 226.899 301 233.096 301 237C301 248.698 297.912 270.86 308.394 279.397C316.002 285.594 324.038 279.228 326.141 272C326.695 270.096 327.804 264.016 330.83 264.631C334.135 265.303 334.776 273.4 335.764 275.956C337.889 281.457 344.744 282.074 349.956 280.682C354.541 279.458 355.921 273.968 357.305 270C361.123 259.054 360 247.425 360 236C360 232.395 361.637 223.549 357.682 221.603C336.861 211.358 342 243.163 342 254z"/>
<path style="fill:#2f77bb; stroke:none;" d="M318 221L319 222L318 221z"/>
<path style="fill:#5d95ca; stroke:none;" d="M342 221L343 222L342 221M359 221L360 222L359 221z"/>
<path style="fill:#9dbfdf; stroke:none;" d="M381 221L380 223L381 221z"/>
<path style="fill:#015bad; stroke:none;" d="M388 266L403 266C403 269.681 401.983 275.376 404.179 278.566C406.719 282.257 418.455 282.454 420.972 278.682C423.568 274.792 422.007 266.497 422 262C421.983 251.623 418.54 242.597 414.95 233C413.724 229.723 412.537 224.119 409.501 222.028C405.887 219.539 398.202 221 394 221C390.613 221 385.39 220.062 382.418 222.028C379.085 224.232 377.772 230.456 376.424 234C372.118 245.32 370 254.883 370 267C370 270.389 369.046 275.713 371.028 278.682C373.444 282.303 384.556 282.303 386.972 278.682C389.085 275.516 388 269.641 388 266z"/>
<path style="fill:#9dbfdf; stroke:none;" d="M410 221L411 222L410 221z"/>
<path style="fill:#015bad; stroke:none;" d="M433 221L433 260C433 265.379 431.734 272.607 433.318 277.772C434.698 282.275 447.285 282.579 449.972 279.258C452.553 276.068 451 267.912 451 264C458.328 264 468.716 265.06 474.895 260.347C483.02 254.15 482.813 230.711 474.945 224.43C465.578 216.952 444.354 221 433 221z"/>
<path style="fill:#2f77bb; stroke:none;" d="M468 221L469 222L468 221z"/>
<path style="fill:#5d95ca; stroke:none;" d="M469 221L470 222L469 221z"/>
<path style="fill:#9dbfdf; stroke:none;" d="M470 221L471 222L470 221z"/>
<path style="fill:#2f77bb; stroke:none;" d="M25 222L26 223L25 222M116 222L117 223L116 222z"/>
<path style="fill:#5d95ca; stroke:none;" d="M117 222L118 223L117 222z"/>
<path style="fill:#9dbfdf; stroke:none;" d="M118 222L118 223L125 223L118 222z"/>
<path style="fill:#5d95ca; stroke:none;" d="M125 222L126 223L125 222z"/>
<path style="fill:#9dbfdf; stroke:none;" d="M252 222L253 223L252 222z"/>
<path style="fill:#2f77bb; stroke:none;" d="M253 222L254 223L253 222z"/>
<path style="fill:#9dbfdf; stroke:none;" d="M300 222L300 261L301 261C301 249.828 304.311 232.274 300 222M319 222L320 223L319 222z"/>
<path style="fill:#5d95ca; stroke:none;" d="M432 222L432 279L433 279L433 240L432 222M472 222L473 223L472 222z"/>
<path style="fill:#9dbfdf; stroke:none;" d="M473 222L474 223L473 222M24.3333 223.667L24.6667 224.333L24.3333 223.667M218 223L219 224L218 223z"/>
<path style="fill:#5d95ca; stroke:none;" d="M251 223L252 224L251 223z"/>
<path style="fill:#9dbfdf; stroke:none;" d="M289 223L289 234L290 234L289 223z"/>
<path style="fill:#5d95ca; stroke:none;" d="M319 223L319 254L320 254C320.907 245.748 322.207 230.642 319 223z"/>
<path style="fill:#9dbfdf; stroke:none;" d="M341 223L341 253L342 253L341 223M360 223L360 259L361 259C361 248.613 364.011 232.56 360 223z"/>
<path style="fill:#5d95ca; stroke:none;" d="M380 223L381 224L380 223M411 223L412 224L411 223M474 223L475 224L474 223M218 224L219 225L218 224z"/>
<path style="fill:#9dbfdf; stroke:none;" d="M249 224L250 225L249 224z"/>
<path style="fill:#2f77bb; stroke:none;" d="M411 224L412 225L411 224M475 224L476 225L475 224z"/>
<path style="fill:#5d95ca; stroke:none;" d="M24 225L25 226L24 225z"/>
<path style="fill:#2f77bb; stroke:none;" d="M218 225L219 226L218 225z"/>
<path style="fill:#9dbfdf; stroke:none;" d="M248 225L249 226L248 225M379 225L380 226L379 225M412 225L413 226L412 225z"/>
<path style="fill:#2f77bb; stroke:none;" d="M476 225L477 226L476 225M24 226L25 227L24 226M379 226L380 227L379 226z"/>
<path style="fill:#5d95ca; stroke:none;" d="M412 226L413 227L412 226z"/>
<path style="fill:#2f77bb; stroke:none;" d="M477 226L478 227L477 226M166.667 227.333L167.333 227.667L166.667 227.333z"/>
<path style="fill:#5d95ca; stroke:none;" d="M168 227L168 228L175 228L168 227z"/>
<path style="fill:#2f77bb; stroke:none;" d="M175 227L176 228L175 227z"/>
<path style="fill:#9dbfdf; stroke:none;" d="M219 227L220 228L219 227z"/>
<path style="fill:#2f77bb; stroke:none;" d="M247 227L248 228L247 227z"/>
<path style="fill:#9dbfdf; stroke:none;" d="M378 227L379 228L378 227M478 227L479 228L478 227M23 228L24 229L23 228z"/>
<path style="fill:#2f77bb; stroke:none;" d="M116 228L117 229L116 228z"/>
<path style="fill:#5d95ca; stroke:none;" d="M117 228L117 229L125 229L117 228z"/>
<path style="fill:#2f77bb; stroke:none;" d="M125.667 228.333L126.333 228.667L125.667 228.333M161 228L162 229L161 228z"/>
<path style="fill:#5d95ca; stroke:none;" d="M162 228L163 229L162 228z"/>
<path style="fill:#9dbfdf; stroke:none;" d="M163.667 228.333L164.333 228.667L163.667 228.333z"/>
<path style="fill:#ffffff; stroke:none;" d="M165 228.44C124.13 235.02 137.427 292.932 177 286.56C218.073 279.947 204.685 222.05 165 228.44z"/>
<path style="fill:#9dbfdf; stroke:none;" d="M177.667 228.333L178.333 228.667L177.667 228.333z"/>
<path style="fill:#5d95ca; stroke:none;" d="M179 228L180 229L179 228z"/>
<path style="fill:#2f77bb; stroke:none;" d="M180 228L181 229L180 228z"/>
<path style="fill:#5d95ca; stroke:none;" d="M219 228L220 229L219 228z"/>
<path style="fill:#9dbfdf; stroke:none;" d="M246 228L247 229L246 228z"/>
<path style="fill:#5d95ca; stroke:none;" d="M378 228L379 229L378 228z"/>
<path style="fill:#9dbfdf; stroke:none;" d="M413 228L414 229L413 228z"/>
<path style="fill:#5d95ca; stroke:none;" d="M23 229L24 230L23 229z"/>
<path style="fill:#9dbfdf; stroke:none;" d="M114 229L115 230L114 229z"/>
<path style="fill:#ffffff; stroke:none;" d="M115.044 229.742C108.658 232.345 110 240.444 110 246C110 258.06 104.081 294.579 126.956 285.258C133.342 282.655 132 274.556 132 269C132 256.94 137.919 220.421 115.044 229.742z"/>
<path style="fill:#9dbfdf; stroke:none;" d="M127 229L128 230L127 229M159 229L160 230L159 229M182 229L183 230L182 229z"/>
<path style="fill:#2f77bb; stroke:none;" d="M183 229L184 230L183 229M219 229L220 230L219 229M246 229L247 230L246 229M413 229L414 230L413 229z"/>
<path style="fill:#9dbfdf; stroke:none;" d="M479 229L480 230L479 229z"/>
<path style="fill:#2f77bb; stroke:none;" d="M23 230L24 231L23 230z"/>
<path style="fill:#5d95ca; stroke:none;" d="M112 230L113 231L112 230M129 230L130 231L129 230M156 230L157 231L156 230z"/>
<path style="fill:#9dbfdf; stroke:none;" d="M157 230L158 231L157 230M184 230L185 231L184 230z"/>
<path style="fill:#5d95ca; stroke:none;" d="M185 230L186 231L185 230z"/>
<path style="fill:#9dbfdf; stroke:none;" d="M377 230L378 231L377 230M414 230L415 231L414 230z"/>
<path style="fill:#2f77bb; stroke:none;" d="M479 230L480 231L479 230z"/>
<path style="fill:#5d95ca; stroke:none;" d="M111 231L112 232L111 231M130 231L131 232L130 231z"/>
<path style="fill:#2f77bb; stroke:none;" d="M154 231L155 232L154 231z"/>
<path style="fill:#9dbfdf; stroke:none;" d="M155 231L156 232L155 231M186 231L187 232L186 231z"/>
<path style="fill:#5d95ca; stroke:none;" d="M187 231L188 232L187 231z"/>
<path style="fill:#9dbfdf; stroke:none;" d="M220.333 231.667L220.667 232.333L220.333 231.667M245 231L246 232L245 231z"/>
<path style="fill:#2f77bb; stroke:none;" d="M377 231L378 232L377 231z"/>
<path style="fill:#5d95ca; stroke:none;" d="M414 231L415 232L414 231z"/>
<path style="fill:#9dbfdf; stroke:none;" d="M22.3333 232.667L22.6667 233.333L22.3333 232.667z"/>
<path style="fill:#2f77bb; stroke:none;" d="M110 232L111 233L110 232M131 232L132 233L131 232M152 232L153 233L152 232z"/>
<path style="fill:#9dbfdf; stroke:none;" d="M153 232L154 233L153 232M188 232L189 233L188 232z"/>
<path style="fill:#2f77bb; stroke:none;" d="M189 232L190 233L189 232z"/>
<path style="fill:#5d95ca; stroke:none;" d="M245 232L245 247L246 247L245 232z"/>
<path style="fill:#9dbfdf; stroke:none;" d="M480 232L481 233L480 232M110 233L111 234L110 233M131 233L132 234L131 233z"/>
<path style="fill:#5d95ca; stroke:none;" d="M151 233L152 234L151 233M190 233L191 234L190 233M220 233L221 234L220 233M376 233L377 234L376 233z"/>
<path style="fill:#9dbfdf; stroke:none;" d="M415 233L416 234L415 233z"/>
<path style="fill:#5d95ca; stroke:none;" d="M480.333 233.667L480.667 234.333L480.333 233.667M22.3333 234.667L22.6667 235.333L22.3333 234.667z"/>
<path style="fill:#2f77bb; stroke:none;" d="M109 234L110 235L109 234M132 234L133 235L132 234z"/>
<path style="fill:#9dbfdf; stroke:none;" d="M150 234L151 235L150 234M191 234L192 235L191 234z"/>
<path style="fill:#2f77bb; stroke:none;" d="M220 234L220 237L221 237L220 234M415 234L416 235L415 234z"/>
<path style="fill:#5d95ca; stroke:none;" d="M109 235L110 236L109 235z"/>
<path style="fill:#9dbfdf; stroke:none;" d="M132 235L132 280L133 280C133 267.258 136.91 246.701 132 235M149 235L150 236L149 235M192 235L193 236L192 235z"/>
<path style="fill:#2f77bb; stroke:none;" d="M193 235L194 236L193 235z"/>
<path style="fill:#5d95ca; stroke:none;" d="M288 235L289 236L288 235z"/>
<path style="fill:#9dbfdf; stroke:none;" d="M375 235L376 236L375 235z"/>
<path style="fill:#2f77bb; stroke:none;" d="M480 235L480 250L481 250L480 235M22.3333 236.667L22.6667 237.333L22.3333 236.667z"/>
<path style="fill:#9dbfdf; stroke:none;" d="M109 236L109 279L110 279C110 266.781 113.71 247.226 109 236z"/>
<path style="fill:#2f77bb; stroke:none;" d="M147 236L146 238L147 236z"/>
<path style="fill:#9dbfdf; stroke:none;" d="M221 236L221 240L222 240L221 236z"/>
<path style="fill:#2f77bb; stroke:none;" d="M265 236L266 237L265 236z"/>
<path style="fill:#5d95ca; stroke:none;" d="M266 236L266 237L287 237L266 236z"/>
<path style="fill:#9dbfdf; stroke:none;" d="M287 236L288 237L287 236z"/>
<path style="fill:#5d95ca; stroke:none;" d="M375 236L376 237L375 236z"/>
<path style="fill:#2f77bb; stroke:none;" d="M394 236L394 237L397 237L394 236z"/>
<path style="fill:#5d95ca; stroke:none;" d="M416 236L417 237L416 236z"/>
<path style="fill:#9dbfdf; stroke:none;" d="M451 236L451 249L452 249L452 237L461 237L451 236M147 237L148 238L147 237z"/>
<path style="fill:#2f77bb; stroke:none;" d="M195 237L196 238L195 237M264 237L265 238L264 237z"/>
<path style="fill:#9dbfdf; stroke:none;" d="M393 237L394 238L393 237z"/>
<path style="fill:#ffffff; stroke:none;" d="M390 251L402 251L398 237C391.589 238.06 390.495 245.325 390 251z"/>
<path style="fill:#2f77bb; stroke:none;" d="M416 237L417 238L416 237z"/>
<path style="fill:#ffffff; stroke:none;" d="M452 237L452 249C461.555 248.973 462 245.86 462 237L452 237z"/>
<path style="fill:#9dbfdf; stroke:none;" d="M264.333 238.667L264.667 239.333L264.333 238.667M374 238L375 239L374 238z"/>
<path style="fill:#2f77bb; stroke:none;" d="M392 238L393 239L392 238z"/>
<path style="fill:#5d95ca; stroke:none;" d="M398 238L399 239L398 238z"/>
<path style="fill:#9dbfdf; stroke:none;" d="M417 238L418 239L417 238z"/>
<path style="fill:#5d95ca; stroke:none;" d="M462 238L463 239L462 238z"/>
<path style="fill:#9dbfdf; stroke:none;" d="M145 239L146 240L145 239M196 239L197 240L196 239z"/>
<path style="fill:#2f77bb; stroke:none;" d="M374 239L375 240L374 239z"/>
<path style="fill:#5d95ca; stroke:none;" d="M392 239L393 240L392 239z"/>
<path style="fill:#9dbfdf; stroke:none;" d="M398 239L399 240L398 239z"/>
<path style="fill:#5d95ca; stroke:none;" d="M417 239L418 240L417 239z"/>
<path style="fill:#9dbfdf; stroke:none;" d="M462 239L462 246L463 246L462 239M21 240L21 243L22 243L21 240z"/>
<path style="fill:#5d95ca; stroke:none;" d="M144 240L145 241L144 240z"/>
<path style="fill:#9dbfdf; stroke:none;" d="M197 240L198 241L197 240z"/>
<path style="fill:#5d95ca; stroke:none;" d="M221 240L221 243L222 243L221 240M264 240L265 241L264 240z"/>
<path style="fill:#9dbfdf; stroke:none;" d="M373 240L374 241L373 240M392 240L393 241L392 240z"/>
<path style="fill:#2f77bb; stroke:none;" d="M143 241L144 242L143 241z"/>
<path style="fill:#5d95ca; stroke:none;" d="M198 241L199 242L198 241M265 241L266 242L265 241z"/>
<path style="fill:#9dbfdf; stroke:none;" d="M266 241L267 242L266 241M326 241L327 242L326 241z"/>
<path style="fill:#5d95ca; stroke:none;" d="M327.667 241.333L328.333 241.667L327.667 241.333z"/>
<path style="fill:#2f77bb; stroke:none;" d="M329 241L329 242L332 242L329 241z"/>
<path style="fill:#5d95ca; stroke:none;" d="M332.667 241.333L333.333 241.667L332.667 241.333z"/>
<path style="fill:#9dbfdf; stroke:none;" d="M334 241L335 242L334 241z"/>
<path style="fill:#5d95ca; stroke:none;" d="M373 241L374 242L373 241M399 241L400 242L399 241z"/>
<path style="fill:#9dbfdf; stroke:none;" d="M418 241L419 242L418 241M143 242L144 243L143 242z"/>
<path style="fill:#2f77bb; stroke:none;" d="M269 242L270 243L269 242z"/>
<path style="fill:#5d95ca; stroke:none;" d="M270.667 242.333L271.333 242.667L270.667 242.333z"/>
<path style="fill:#9dbfdf; stroke:none;" d="M272.667 242.333L273.333 242.667L272.667 242.333z"/>
<path style="fill:#5d95ca; stroke:none;" d="M325 242L326 243L325 242z"/>
<path style="fill:#2f77bb; stroke:none;" d="M335 242L336 243L335 242z"/>
<path style="fill:#5d95ca; stroke:none;" d="M391 242L392 243L391 242z"/>
<path style="fill:#9dbfdf; stroke:none;" d="M399 242L400 243L399 242z"/>
<path style="fill:#2f77bb; stroke:none;" d="M418 242L419 243L418 242z"/>
<path style="fill:#5d95ca; stroke:none;" d="M21 243L21 247L22 247L21 243M142 243L143 244L142 243z"/>
<path style="fill:#9dbfdf; stroke:none;" d="M199 243L200 244L199 243z"/>
<path style="fill:#2f77bb; stroke:none;" d="M221 243L221 246L222 246L221 243M276.667 243.333L277.333 243.667L276.667 243.333z"/>
<path style="fill:#5d95ca; stroke:none;" d="M278 243L279 244L278 243z"/>
<path style="fill:#9dbfdf; stroke:none;" d="M279.667 243.333L280.333 243.667L279.667 243.333M324 243L325 244L324 243z"/>
<path style="fill:#5d95ca; stroke:none;" d="M336 243L337 244L336 243z"/>
<path style="fill:#9dbfdf; stroke:none;" d="M372 243L373 244L372 243M391 243L392 244L391 243M168 244L168 245L174 245L168 244z"/>
<path style="fill:#2f77bb; stroke:none;" d="M200 244L201 245L200 244M282 244L283 245L282 244z"/>
<path style="fill:#9dbfdf; stroke:none;" d="M283 244L284 245L283 244z"/>
<path style="fill:#2f77bb; stroke:none;" d="M324 244L325 245L324 244M372 244L373 245L372 244M400 244L401 245L400 244z"/>
<path style="fill:#5d95ca; stroke:none;" d="M419 244L420 245L419 244M141 245L142 246L141 245M166 245L167 246L166 245z"/>
<path style="fill:#015bad; stroke:none;" d="M167.004 245.858C153.088 251.547 160.535 274.634 174.996 269.106C189.288 263.642 181.335 239.999 167.004 245.858z"/>
<path style="fill:#5d95ca; stroke:none;" d="M175 245L176 246L175 245z"/>
<path style="fill:#9dbfdf; stroke:none;" d="M200 245L201 246L200 245z"/>
<path style="fill:#5d95ca; stroke:none;" d="M285 245L286 246L285 245z"/>
<path style="fill:#9dbfdf; stroke:none;" d="M323 245L324 246L323 245z"/>
<path style="fill:#5d95ca; stroke:none;" d="M337 245L338 246L337 245M390 245L391 246L390 245z"/>
<path style="fill:#9dbfdf; stroke:none;" d="M400 245L401 246L400 245z"/>
<path style="fill:#2f77bb; stroke:none;" d="M419 245L420 246L419 245z"/>
<path style="fill:#9dbfdf; stroke:none;" d="M164 246L165 247L164 246z"/>
<path style="fill:#2f77bb; stroke:none;" d="M165 246L166 247L165 246z"/>
<path style="fill:#9dbfdf; stroke:none;" d="M177 246L178 247L177 246M287 246L288 247L287 246z"/>
<path style="fill:#2f77bb; stroke:none;" d="M323 246L324 247L323 246z"/>
<path style="fill:#9dbfdf; stroke:none;" d="M371 246L372 247L371 246M390 246L391 247L390 246M420 246L421 247L420 246z"/>
<path style="fill:#5d95ca; stroke:none;" d="M462 246L463 247L462 246z"/>
<path style="fill:#2f77bb; stroke:none;" d="M21 247L21 254L22 254L21 247z"/>
<path style="fill:#5d95ca; stroke:none;" d="M140 247L141 248L140 247M163 247L164 248L163 247z"/>
<path style="fill:#2f77bb; stroke:none;" d="M178 247L179 248L178 247z"/>
<path style="fill:#5d95ca; stroke:none;" d="M201 247L202 248L201 247z"/>
<path style="fill:#9dbfdf; stroke:none;" d="M245.333 247.667L245.667 248.333L245.333 247.667z"/>
<path style="fill:#5d95ca; stroke:none;" d="M288 247L289 248L288 247z"/>
<path style="fill:#9dbfdf; stroke:none;" d="M322 247L323 248L322 247M338 247L339 248L338 247z"/>
<path style="fill:#5d95ca; stroke:none;" d="M371 247L372 248L371 247z"/>
<path style="fill:#2f77bb; stroke:none;" d="M401 247L402 248L401 247z"/>
<path style="fill:#5d95ca; stroke:none;" d="M420 247L421 248L420 247z"/>
<path style="fill:#9dbfdf; stroke:none;" d="M140 248L141 249L140 248z"/>
<path style="fill:#2f77bb; stroke:none;" d="M162 248L163 249L162 248M179 248L180 249L179 248z"/>
<path style="fill:#5d95ca; stroke:none;" d="M289 248L290 249L289 248z"/>
<path style="fill:#2f77bb; stroke:none;" d="M322 248L323 249L322 248M389 248L390 249L389 248z"/>
<path style="fill:#5d95ca; stroke:none;" d="M401 248L402 249L401 248z"/>
<path style="fill:#2f77bb; stroke:none;" d="M420 248L421 249L420 248z"/>
<path style="fill:#9dbfdf; stroke:none;" d="M460 248L461 249L460 248z"/>
<path style="fill:#2f77bb; stroke:none;" d="M461 248L462 249L461 248z"/>
<path style="fill:#5d95ca; stroke:none;" d="M161 249L162 250L161 249M180 249L181 250L180 249z"/>
<path style="fill:#2f77bb; stroke:none;" d="M202 249L203 250L202 249z"/>
<path style="fill:#9dbfdf; stroke:none;" d="M290 249L291 250L290 249M321 249L322 250L321 249M339 249L340 250L339 249M370 249L371 250L370 249M389.333 249.667L389.667 250.333L389.333 249.667M401 249L402 250L401 249z"/>
<path style="fill:#2f77bb; stroke:none;" d="M139 250L140 251L139 250z"/>
<path style="fill:#9dbfdf; stroke:none;" d="M160 250L161 251L160 250M181 250L182 251L181 250z"/>
<path style="fill:#5d95ca; stroke:none;" d="M202 250L203 251L202 250M246 250L247 251L246 250z"/>
<path style="fill:#2f77bb; stroke:none;" d="M290 250L291 251L290 250z"/>
<path style="fill:#5d95ca; stroke:none;" d="M321 250L322 251L321 250z"/>
<path style="fill:#2f77bb; stroke:none;" d="M339 250L340 251L339 250z"/>
<path style="fill:#5d95ca; stroke:none;" d="M370.333 250.667L370.667 251.333L370.333 250.667z"/>
<path style="fill:#9dbfdf; stroke:none;" d="M421 250L422 251L421 250z"/>
<path style="fill:#5d95ca; stroke:none;" d="M480 250L481 251L480 250M139 251L140 252L139 251z"/>
<path style="fill:#2f77bb; stroke:none;" d="M160 251L161 252L160 251M181 251L182 252L181 251z"/>
<path style="fill:#9dbfdf; stroke:none;" d="M202.333 251.667L202.667 252.333L202.333 251.667M291 251L292 252L291 251z"/>
<path style="fill:#5d95ca; stroke:none;" d="M421.333 251.667L421.667 252.333L421.333 251.667z"/>
<path style="fill:#9dbfdf; stroke:none;" d="M480.333 251.667L480.667 252.333L480.333 251.667M139 252L140 253L139 252M159 252L160 253L159 252M182 252L183 253L182 252z"/>
<path style="fill:#5d95ca; stroke:none;" d="M247 252L248 253L247 252M291 252L292 253L291 252z"/>
<path style="fill:#2f77bb; stroke:none;" d="M340 252L341 253L340 252M370 252L371 253L370 252z"/>
<path style="fill:#5d95ca; stroke:none;" d="M159 253L160 254L159 253z"/>
<path style="fill:#2f77bb; stroke:none;" d="M182 253L183 254L182 253M248 253L249 254L248 253M291 253L292 254L291 253z"/>
<path style="fill:#5d95ca; stroke:none;" d="M341 253L342 254L341 253z"/>
<path style="fill:#2f77bb; stroke:none;" d="M421 253L422 254L421 253z"/>
<path style="fill:#5d95ca; stroke:none;" d="M21 254L21 258L22 258L21 254z"/>
<path style="fill:#2f77bb; stroke:none;" d="M159 254L160 255L159 254M203 254L203 261L204 261L203 254z"/>
<path style="fill:#5d95ca; stroke:none;" d="M249 254L250 255L249 254M479 254L480 255L479 254z"/>
<path style="fill:#2f77bb; stroke:none;" d="M138 255L138 260L139 260L138 255z"/>
<path style="fill:#9dbfdf; stroke:none;" d="M158 255L158 260L159 260L158 255M183 255L183 260L184 260L183 255z"/>
<path style="fill:#2f77bb; stroke:none;" d="M221 255L221 258L222 258L221 255z"/>
<path style="fill:#9dbfdf; stroke:none;" d="M250 255L251 256L250 255M369 255L369 278L370 278L369 255M479 255L480 256L479 255M252 256L253 257L252 256z"/>
<path style="fill:#2f77bb; stroke:none;" d="M253 256L254 257L253 256M478 256L479 257L478 256z"/>
<path style="fill:#9dbfdf; stroke:none;" d="M255 257L256 258L255 257z"/>
<path style="fill:#5d95ca; stroke:none;" d="M256 257L257 258L256 257z"/>
<path style="fill:#9dbfdf; stroke:none;" d="M292 257L292 267L293 267L292 257M478 257L479 258L478 257M21 258L21 262L22 262L21 258z"/>
<path style="fill:#5d95ca; stroke:none;" d="M221 258L221 261L222 261L221 258z"/>
<path style="fill:#9dbfdf; stroke:none;" d="M259.667 258.333L260.333 258.667L259.667 258.333z"/>
<path style="fill:#5d95ca; stroke:none;" d="M261.667 258.333L262.333 258.667L261.667 258.333z"/>
<path style="fill:#2f77bb; stroke:none;" d="M263 258L264 259L263 258z"/>
<path style="fill:#9dbfdf; stroke:none;" d="M477 258L478 259L477 258M266 259L266 260L269 260L266 259z"/>
<path style="fill:#5d95ca; stroke:none;" d="M269 259L270 260L269 259z"/>
<path style="fill:#2f77bb; stroke:none;" d="M270 259L271 260L270 259z"/>
<path style="fill:#5d95ca; stroke:none;" d="M476 259L477 260L476 259z"/>
<path style="fill:#2f77bb; stroke:none;" d="M159 260L160 261L159 260z"/>
<path style="fill:#5d95ca; stroke:none;" d="M272 260L273 261L272 260M475 260L476 261L475 260z"/>
<path style="fill:#2f77bb; stroke:none;" d="M51 261L52 262L51 261z"/>
<path style="fill:#5d95ca; stroke:none;" d="M52 261L53 262L52 261M159 261L160 262L159 261z"/>
<path style="fill:#2f77bb; stroke:none;" d="M182 261L183 262L182 261z"/>
<path style="fill:#9dbfdf; stroke:none;" d="M221 261L221 265L222 265L221 261z"/>
<path style="fill:#2f77bb; stroke:none;" d="M473 261L474 262L473 261z"/>
<path style="fill:#9dbfdf; stroke:none;" d="M474 261L475 262L474 261z"/>
<path style="fill:#2f77bb; stroke:none;" d="M49 262L48 264L49 262z"/>
<path style="fill:#9dbfdf; stroke:none;" d="M50 262L51 263L50 262z"/>
<path style="fill:#5d95ca; stroke:none;" d="M54 262L55 263L54 262z"/>
<path style="fill:#2f77bb; stroke:none;" d="M76 262L77 263L76 262z"/>
<path style="fill:#9dbfdf; stroke:none;" d="M139 262L140 263L139 262M159 262L160 263L159 262M182 262L183 263L182 262M202.333 262.667L202.667 263.333L202.333 262.667z"/>
<path style="fill:#2f77bb; stroke:none;" d="M359 262L360 263L359 262z"/>
<path style="fill:#5d95ca; stroke:none;" d="M471 262L472 263L471 262z"/>
<path style="fill:#9dbfdf; stroke:none;" d="M472 262L473 263L472 262M49 263L50 264L49 263z"/>
<path style="fill:#2f77bb; stroke:none;" d="M55 263L56 264L55 263z"/>
<path style="fill:#9dbfdf; stroke:none;" d="M76 263L77 264L76 263z"/>
<path style="fill:#5d95ca; stroke:none;" d="M139 263L140 264L139 263z"/>
<path style="fill:#2f77bb; stroke:none;" d="M160 263L161 264L160 263M181 263L182 264L181 263M301 263L302 264L301 263z"/>
<path style="fill:#5d95ca; stroke:none;" d="M329 263L330 264L329 263z"/>
<path style="fill:#9dbfdf; stroke:none;" d="M330 263L331 264L330 263z"/>
<path style="fill:#5d95ca; stroke:none;" d="M331 263L332 264L331 263M359 263L360 264L359 263z"/>
<path style="fill:#2f77bb; stroke:none;" d="M464.667 263.333L465.333 263.667L464.667 263.333z"/>
<path style="fill:#5d95ca; stroke:none;" d="M466.667 263.333L467.333 263.667L466.667 263.333z"/>
<path style="fill:#9dbfdf; stroke:none;" d="M468 263L469 264L468 263z"/>
<path style="fill:#2f77bb; stroke:none;" d="M22 264L23 265L22 264z"/>
<path style="fill:#9dbfdf; stroke:none;" d="M48 264L49 265L48 264M55 264L56 265L55 264z"/>
<path style="fill:#5d95ca; stroke:none;" d="M75 264L76 265L75 264z"/>
<path style="fill:#2f77bb; stroke:none;" d="M139 264L140 265L139 264z"/>
<path style="fill:#9dbfdf; stroke:none;" d="M160 264L161 265L160 264M181 264L182 265L181 264z"/>
<path style="fill:#5d95ca; stroke:none;" d="M202 264L203 265L202 264M272 264L273 265L272 264M301 264L302 265L301 264M328 264L329 265L328 264z"/>
<path style="fill:#2f77bb; stroke:none;" d="M332 264L333 265L332 264z"/>
<path style="fill:#9dbfdf; stroke:none;" d="M359 264L360 265L359 264M451 264L451 279L452 279L451 264z"/>
<path style="fill:#5d95ca; stroke:none;" d="M22.3333 265.667L22.6667 266.333L22.3333 265.667M47 265L48 266L47 265M57 265L58 266L57 265z"/>
<path style="fill:#2f77bb; stroke:none;" d="M74 265L75 266L74 265z"/>
<path style="fill:#5d95ca; stroke:none;" d="M100 265L101 266L100 265M161 265L162 266L161 265M180 265L181 266L180 265z"/>
<path style="fill:#2f77bb; stroke:none;" d="M202 265L203 266L202 265M220 265L220 268L221 268L220 265z"/>
<path style="fill:#9dbfdf; stroke:none;" d="M246 265L247 266L246 265z"/>
<path style="fill:#2f77bb; stroke:none;" d="M247 265L247 266L271 266L247 265z"/>
<path style="fill:#9dbfdf; stroke:none;" d="M301 265L302 266L301 265M328 265L329 266L328 265M332.333 265.667L332.667 266.333L332.333 265.667z"/>
<path style="fill:#5d95ca; stroke:none;" d="M59 266L60 267L59 266z"/>
<path style="fill:#2f77bb; stroke:none;" d="M73 266L74 267L73 266M100 266L101 267L100 266z"/>
<path style="fill:#9dbfdf; stroke:none;" d="M140 266L141 267L140 266z"/>
<path style="fill:#2f77bb; stroke:none;" d="M162 266L163 267L162 266M179 266L180 267L179 266z"/>
<path style="fill:#9dbfdf; stroke:none;" d="M245 266L246 267L245 266z"/>
<path style="fill:#2f77bb; stroke:none;" d="M302 266L303 267L302 266M358 266L359 267L358 266z"/>
<path style="fill:#9dbfdf; stroke:none;" d="M388 266L388 277L389 277L389 267L403 267L388 266M22 267L22 270L23 270L22 267M46 267L47 268L46 267M61 267L62 268L61 267z"/>
<path style="fill:#5d95ca; stroke:none;" d="M62 267L63 268L62 267z"/>
<path style="fill:#2f77bb; stroke:none;" d="M63.6667 267.333L64.3333 267.667L63.6667 267.333M70 267L71 268L70 267z"/>
<path style="fill:#5d95ca; stroke:none;" d="M71 267L72 268L71 267z"/>
<path style="fill:#9dbfdf; stroke:none;" d="M72 267L73 268L72 267z"/>
<path style="fill:#5d95ca; stroke:none;" d="M140 267L141 268L140 267M163 267L164 268L163 267z"/>
<path style="fill:#2f77bb; stroke:none;" d="M178 267L179 268L178 267z"/>
<path style="fill:#5d95ca; stroke:none;" d="M201 267L202 268L201 267M245 267L245 279L246 279L245 267M302 267L303 268L302 267z"/>
<path style="fill:#2f77bb; stroke:none;" d="M327 267L328 268L327 267z"/>
<path style="fill:#9dbfdf; stroke:none;" d="M358 267L359 268L358 267z"/>
<path style="fill:#2f77bb; stroke:none;" d="M45 268L46 269L45 268z"/>
<path style="fill:#9dbfdf; stroke:none;" d="M66 268L66 269L69 269L66 268M99 268L100 269L99 268M164 268L165 269L164 268M177 268L178 269L177 268z"/>
<path style="fill:#5d95ca; stroke:none;" d="M220 268L221 269L220 268z"/>
<path style="fill:#9dbfdf; stroke:none;" d="M302 268L303 269L302 268M327 268L328 269L327 268z"/>
<path style="fill:#5d95ca; stroke:none;" d="M333 268L334 269L333 268M45 269L46 270L45 269M99 269L100 270L99 269M141 269L142 270L141 269M166 269L167 270L166 269z"/>
<path style="fill:#2f77bb; stroke:none;" d="M167 269L168 270L167 269M174 269L175 270L174 269z"/>
<path style="fill:#5d95ca; stroke:none;" d="M175 269L176 270L175 269z"/>
<path style="fill:#9dbfdf; stroke:none;" d="M176 269L177 270L176 269M200 269L201 270L200 269M220 269L221 270L220 269z"/>
<path style="fill:#2f77bb; stroke:none;" d="M303 269L304 270L303 269z"/>
<path style="fill:#9dbfdf; stroke:none;" d="M333 269L334 270L333 269z"/>
<path style="fill:#5d95ca; stroke:none;" d="M357 269L358 270L357 269z"/>
<path style="fill:#9dbfdf; stroke:none;" d="M45 270L45 276L46 276L45 270z"/>
<path style="fill:#2f77bb; stroke:none;" d="M99 270L100 271L99 270z"/>
<path style="fill:#9dbfdf; stroke:none;" d="M168 270L168 271L174 271L168 270z"/>
<path style="fill:#2f77bb; stroke:none;" d="M200 270L201 271L200 270z"/>
<path style="fill:#5d95ca; stroke:none;" d="M291 270L292 271L291 270z"/>
<path style="fill:#9dbfdf; stroke:none;" d="M303 270L304 271L303 270z"/>
<path style="fill:#2f77bb; stroke:none;" d="M326 270L327 271L326 270z"/>
<path style="fill:#9dbfdf; stroke:none;" d="M357 270L358 271L357 270z"/>
<path style="fill:#2f77bb; stroke:none;" d="M23 271L24 272L23 271z"/>
<path style="fill:#9dbfdf; stroke:none;" d="M98.3333 271.667L98.6667 272.333L98.3333 271.667z"/>
<path style="fill:#5d95ca; stroke:none;" d="M142 271L143 272L142 271z"/>
<path style="fill:#9dbfdf; stroke:none;" d="M199 271L200 272L199 271z"/>
<path style="fill:#2f77bb; stroke:none;" d="M219 271L220 272L219 271z"/>
<path style="fill:#9dbfdf; stroke:none;" d="M291 271L292 272L291 271z"/>
<path style="fill:#5d95ca; stroke:none;" d="M326 271L327 272L326 271z"/>
<path style="fill:#2f77bb; stroke:none;" d="M334 271L335 272L334 271z"/>
<path style="fill:#5d95ca; stroke:none;" d="M23 272L24 273L23 272z"/>
<path style="fill:#9dbfdf; stroke:none;" d="M143 272L144 273L143 272z"/>
<path style="fill:#5d95ca; stroke:none;" d="M219 272L220 273L219 272z"/>
<path style="fill:#2f77bb; stroke:none;" d="M304 272L305 273L304 272z"/>
<path style="fill:#9dbfdf; stroke:none;" d="M326 272L327 273L326 272z"/>
<path style="fill:#5d95ca; stroke:none;" d="M334 272L335 273L334 272M356 272L357 273L356 272z"/>
<path style="fill:#9dbfdf; stroke:none;" d="M23 273L24 274L23 273z"/>
<path style="fill:#2f77bb; stroke:none;" d="M98 273L99 274L98 273M143 273L144 274L143 273z"/>
<path style="fill:#5d95ca; stroke:none;" d="M198 273L199 274L198 273z"/>
<path style="fill:#9dbfdf; stroke:none;" d="M219.333 273.667L219.667 274.333L219.333 273.667z"/>
<path style="fill:#5d95ca; stroke:none;" d="M290 273L291 274L290 273z"/>
<path style="fill:#9dbfdf; stroke:none;" d="M304 273L305 274L304 273M334 273L335 274L334 273M356 273L357 274L356 273M97 274L98 275L97 274z"/>
<path style="fill:#5d95ca; stroke:none;" d="M144 274L145 275L144 274z"/>
<path style="fill:#9dbfdf; stroke:none;" d="M197 274L198 275L197 274z"/>
<path style="fill:#5d95ca; stroke:none;" d="M325 274L326 275L325 274z"/>
<path style="fill:#2f77bb; stroke:none;" d="M355 274L356 275L355 274M24 275L25 276L24 275z"/>
<path style="fill:#9dbfdf; stroke:none;" d="M145 275L146 276L145 275M196 275L195 277L196 275z"/>
<path style="fill:#2f77bb; stroke:none;" d="M218.333 275.667L218.667 276.333L218.333 275.667z"/>
<path style="fill:#9dbfdf; stroke:none;" d="M289 275L290 276L289 275z"/>
<path style="fill:#5d95ca; stroke:none;" d="M305 275L306 276L305 275z"/>
<path style="fill:#9dbfdf; stroke:none;" d="M325 275L326 276L325 275z"/>
<path style="fill:#5d95ca; stroke:none;" d="M335 275L336 276L335 275z"/>
<path style="fill:#9dbfdf; stroke:none;" d="M355 275L356 276L355 275z"/>
<path style="fill:#5d95ca; stroke:none;" d="M24 276L25 277L24 276M45 276L46 277L45 276z"/>
<path style="fill:#9dbfdf; stroke:none;" d="M96 276L97 277L96 276M146 276L148 278L146 276z"/>
<path style="fill:#2f77bb; stroke:none;" d="M196 276L197 277L196 276z"/>
<path style="fill:#9dbfdf; stroke:none;" d="M288 276L289 277L288 276M305 276L306 277L305 276M335 276L336 277L335 276M24 277L25 278L24 277z"/>
<path style="fill:#2f77bb; stroke:none;" d="M45 277L46 278L45 277M146 277L147 278L146 277M195 277L196 278L195 277z"/>
<path style="fill:#5d95ca; stroke:none;" d="M218 277L219 278L218 277z"/>
<path style="fill:#2f77bb; stroke:none;" d="M286 277L287 278L286 277z"/>
<path style="fill:#9dbfdf; stroke:none;" d="M287 277L288 278L287 277z"/>
<path style="fill:#2f77bb; stroke:none;" d="M306 277L307 278L306 277M324 277L325 278L324 277z"/>
<path style="fill:#5d95ca; stroke:none;" d="M354 277L355 278L354 277z"/>
<path style="fill:#2f77bb; stroke:none;" d="M25.3333 278.667L25.6667 279.333L25.3333 278.667z"/>
<path style="fill:#9dbfdf; stroke:none;" d="M46 278L47 279L46 278z"/>
<path style="fill:#2f77bb; stroke:none;" d="M95 278L96 279L95 278M147 278L148 279L147 278M194 278L195 279L194 278z"/>
<path style="fill:#9dbfdf; stroke:none;" d="M218 278L219 279L218 278z"/>
<path style="fill:#5d95ca; stroke:none;" d="M285 278L286 279L285 278M306 278L307 279L306 278M324 278L325 279L324 278z"/>
<path style="fill:#2f77bb; stroke:none;" d="M336 278L337 279L336 278z"/>
<path style="fill:#9dbfdf; stroke:none;" d="M354 278L355 279L354 278z"/>
<path style="fill:#2f77bb; stroke:none;" d="M403 278L404 279L403 278z"/>
<path style="fill:#9dbfdf; stroke:none;" d="M47 279L48 280L47 279z"/>
<path style="fill:#5d95ca; stroke:none;" d="M94 279L95 280L94 279M109 279L110 280L109 279z"/>
<path style="fill:#2f77bb; stroke:none;" d="M148 279L149 280L148 279z"/>
<path style="fill:#9dbfdf; stroke:none;" d="M149 279L150 280L149 279M192 279L193 280L192 279z"/>
<path style="fill:#2f77bb; stroke:none;" d="M193 279L194 280L193 279z"/>
<path style="fill:#9dbfdf; stroke:none;" d="M245 279L246 280L245 279z"/>
<path style="fill:#2f77bb; stroke:none;" d="M282 279L283 280L282 279z"/>
<path style="fill:#9dbfdf; stroke:none;" d="M283 279L284 280L283 279z"/>
<path style="fill:#2f77bb; stroke:none;" d="M307 279L308 280L307 279z"/>
<path style="fill:#9dbfdf; stroke:none;" d="M336 279L337 280L336 279z"/>
<path style="fill:#2f77bb; stroke:none;" d="M353 279L354 280L353 279M370 279L372 281L370 279M387 279L386 281L387 279z"/>
<path style="fill:#5d95ca; stroke:none;" d="M403 279L404 280L403 279z"/>
<path style="fill:#2f77bb; stroke:none;" d="M421 279L422 280L421 279z"/>
<path style="fill:#9dbfdf; stroke:none;" d="M432 279L433 280L432 279M25 280L26 281L25 280z"/>
<path style="fill:#2f77bb; stroke:none;" d="M47 280L48 281L47 280z"/>
<path style="fill:#5d95ca; stroke:none;" d="M93 280L94 281L93 280z"/>
<path style="fill:#2f77bb; stroke:none;" d="M109 280L110 281L109 280z"/>
<path style="fill:#5d95ca; stroke:none;" d="M132 280L133 281L132 280z"/>
<path style="fill:#9dbfdf; stroke:none;" d="M150 280L151 281L150 280M191 280L192 281L191 280z"/>
<path style="fill:#5d95ca; stroke:none;" d="M217 280L218 281L217 280M246 280L247 281L246 280z"/>
<path style="fill:#2f77bb; stroke:none;" d="M247 280L248 281L247 280M276 280L276 281L279 281L276 280z"/>
<path style="fill:#5d95ca; stroke:none;" d="M279 280L280 281L279 280z"/>
<path style="fill:#9dbfdf; stroke:none;" d="M280 280L281 281L280 280z"/>
<path style="fill:#5d95ca; stroke:none;" d="M308 280L309 281L308 280z"/>
<path style="fill:#2f77bb; stroke:none;" d="M322 280L323 281L322 280z"/>
<path style="fill:#9dbfdf; stroke:none;" d="M323 280L324 281L323 280M337 280L338 281L337 280z"/>
<path style="fill:#2f77bb; stroke:none;" d="M338 280L339 281L338 280z"/>
<path style="fill:#5d95ca; stroke:none;" d="M352 280L353 281L352 280z"/>
<path style="fill:#9dbfdf; stroke:none;" d="M370 280L371 281L370 280M387 280L388 281L387 280z"/>
<path style="fill:#5d95ca; stroke:none;" d="M404 280L405 281L404 280z"/>
<path style="fill:#2f77bb; stroke:none;" d="M405 280L406 281L405 280M420 280L421 281L420 280z"/>
<path style="fill:#5d95ca; stroke:none;" d="M433 280L434 281L433 280z"/>
<path style="fill:#2f77bb; stroke:none;" d="M434 280L435 281L434 280M449 280L450 281L449 280z"/>
<path style="fill:#9dbfdf; stroke:none;" d="M450 280L451 281L450 280z"/>
<path style="fill:#5d95ca; stroke:none;" d="M48 281L49 282L48 281z"/>
<path style="fill:#2f77bb; stroke:none;" d="M92 281L93 282L92 281z"/>
<path style="fill:#9dbfdf; stroke:none;" d="M110 281L111 282L110 281M131 281L132 282L131 281z"/>
<path style="fill:#5d95ca; stroke:none;" d="M151 281L152 282L151 281M190 281L191 282L190 281z"/>
<path style="fill:#9dbfdf; stroke:none;" d="M217 281L218 282L217 281z"/>
<path style="fill:#2f77bb; stroke:none;" d="M26 282L27 283L26 282M49 282L50 283L49 282z"/>
<path style="fill:#9dbfdf; stroke:none;" d="M90 282L91 283L90 282z"/>
<path style="fill:#5d95ca; stroke:none;" d="M110 282L111 283L110 282M131 282L132 283L131 282z"/>
<path style="fill:#9dbfdf; stroke:none;" d="M153 282L154 283L153 282M188 282L189 283L188 282z"/>
<path style="fill:#2f77bb; stroke:none;" d="M189 282L190 283L189 282M216 282L217 283L216 282z"/>
<path style="fill:#9dbfdf; stroke:none;" d="M26 283L27 284L26 283z"/>
<path style="fill:#2f77bb; stroke:none;" d="M50 283L51 284L50 283z"/>
<path style="fill:#9dbfdf; stroke:none;" d="M51 283L52 284L51 283M88 283L89 284L88 283z"/>
<path style="fill:#5d95ca; stroke:none;" d="M89 283L90 284L89 283M111 283L112 284L111 283z"/>
<path style="fill:#9dbfdf; stroke:none;" d="M130 283L131 284L130 283z"/>
<path style="fill:#5d95ca; stroke:none;" d="M154 283L155 284L154 283z"/>
<path style="fill:#9dbfdf; stroke:none;" d="M155 283L156 284L155 283M186 283L187 284L186 283z"/>
<path style="fill:#5d95ca; stroke:none;" d="M187 283L188 284L187 283M216 283L217 284L216 283z"/>
<path style="fill:#2f77bb; stroke:none;" d="M27 284L28 285L27 284M52 284L53 285L52 284z"/>
<path style="fill:#9dbfdf; stroke:none;" d="M53 284L54 285L53 284z"/>
<path style="fill:#5d95ca; stroke:none;" d="M87 284L88 285L87 284M112 284L113 285L112 284M129 284L130 285L129 284z"/>
<path style="fill:#2f77bb; stroke:none;" d="M156 284L157 285L156 284z"/>
<path style="fill:#9dbfdf; stroke:none;" d="M157 284L158 285L157 284M184 284L185 285L184 284z"/>
<path style="fill:#2f77bb; stroke:none;" d="M185 284L186 285L185 284z"/>
<path style="fill:#9dbfdf; stroke:none;" d="M216 284L217 285L216 284z"/>
<path style="fill:#5d95ca; stroke:none;" d="M27 285L28 286L27 285z"/>
<path style="fill:#2f77bb; stroke:none;" d="M54 285L55 286L54 285z"/>
<path style="fill:#9dbfdf; stroke:none;" d="M55 285L56 286L55 285M84 285L85 286L84 285z"/>
<path style="fill:#5d95ca; stroke:none;" d="M85 285L86 286L85 285z"/>
<path style="fill:#2f77bb; stroke:none;" d="M113 285L114 286L113 285z"/>
<path style="fill:#9dbfdf; stroke:none;" d="M114 285L115 286L114 285M127 285L128 286L127 285z"/>
<path style="fill:#2f77bb; stroke:none;" d="M128 285L129 286L128 285M158 285L159 286L158 285z"/>
<path style="fill:#9dbfdf; stroke:none;" d="M159 285L160 286L159 285M182 285L183 286L182 285z"/>
<path style="fill:#2f77bb; stroke:none;" d="M183 285L184 286L183 285z"/>
<path style="fill:#9dbfdf; stroke:none;" d="M27 286L28 287L27 286z"/>
<path style="fill:#2f77bb; stroke:none;" d="M56.6667 286.333L57.3333 286.667L56.6667 286.333z"/>
<path style="fill:#5d95ca; stroke:none;" d="M58 286L59 287L58 286z"/>
<path style="fill:#9dbfdf; stroke:none;" d="M59 286L60 287L59 286M80.6667 286.333L81.3333 286.667L80.6667 286.333z"/>
<path style="fill:#5d95ca; stroke:none;" d="M82 286L83 287L82 286z"/>
<path style="fill:#2f77bb; stroke:none;" d="M83 286L84 287L83 286M115 286L116 287L115 286z"/>
<path style="fill:#5d95ca; stroke:none;" d="M116 286L116 287L126 287L116 286z"/>
<path style="fill:#2f77bb; stroke:none;" d="M126 286L127 287L126 286M161 286L162 287L161 286z"/>
<path style="fill:#5d95ca; stroke:none;" d="M162 286L163 287L162 286z"/>
<path style="fill:#9dbfdf; stroke:none;" d="M163.667 286.333L164.333 286.667L163.667 286.333M177.667 286.333L178.333 286.667L177.667 286.333z"/>
<path style="fill:#5d95ca; stroke:none;" d="M179 286L180 287L179 286z"/>
<path style="fill:#2f77bb; stroke:none;" d="M180 286L181 287L180 286z"/>
<path style="fill:#5d95ca; stroke:none;" d="M215 286L216 287L215 286z"/>
<path style="fill:#2f77bb; stroke:none;" d="M61 287L62 288L61 287z"/>
<path style="fill:#5d95ca; stroke:none;" d="M62.6667 287.333L63.3333 287.667L62.6667 287.333z"/>
<path style="fill:#9dbfdf; stroke:none;" d="M64.6667 287.333L65.3333 287.667L64.6667 287.333M74 287L74 288L77 288L74 287z"/>
<path style="fill:#5d95ca; stroke:none;" d="M77 287L78 288L77 287z"/>
<path style="fill:#2f77bb; stroke:none;" d="M78 287L79 288L78 287M166 287L167 288L166 287z"/>
<path style="fill:#5d95ca; stroke:none;" d="M167 287L167 288L170 288L167 287z"/>
<path style="fill:#9dbfdf; stroke:none;" d="M170.667 287.333L171.333 287.667L170.667 287.333z"/>
<path style="fill:#5d95ca; stroke:none;" d="M172 287L172 288L175 288L172 287z"/>
<path style="fill:#2f77bb; stroke:none;" d="M175 287L176 288L175 287z"/>
<path style="fill:#5d95ca; stroke:none;" d="M28 288L29 289L28 288M214 288L215 289L214 288z"/>
<path style="fill:#9dbfdf; stroke:none;" d="M214 289L215 290L214 289z"/>
<path style="fill:#5d95ca; stroke:none;" d="M29 290L30 291L29 290z"/>
<path style="fill:#2f77bb; stroke:none;" d="M213 290L214 291L213 290z"/>
<path style="fill:#9dbfdf; stroke:none;" d="M29 291L30 292L29 291z"/>
<path style="fill:#5d95ca; stroke:none;" d="M213 291L214 292L213 291z"/>
<path style="fill:#2f77bb; stroke:none;" d="M30 292L31 293L30 292z"/>
<path style="fill:#9dbfdf; stroke:none;" d="M30 293L31 294L30 293z"/>
<path style="fill:#5d95ca; stroke:none;" d="M212 293L213 294L212 293z"/>
<path style="fill:#2f77bb; stroke:none;" d="M31 294L32 295L31 294M211 294L212 295L211 294z"/>
<path style="fill:#9dbfdf; stroke:none;" d="M31 295L32 296L31 295z"/>
<path style="fill:#5d95ca; stroke:none;" d="M211 295L212 296L211 295z"/>
<path style="fill:#2f77bb; stroke:none;" d="M32 296L33 297L32 296z"/>
<path style="fill:#9dbfdf; stroke:none;" d="M211 296L212 297L211 296M32 297L33 298L32 297z"/>
<path style="fill:#5d95ca; stroke:none;" d="M210 297L211 298L210 297z"/>
<path style="fill:#2f77bb; stroke:none;" d="M33 298L34 299L33 298M209 298L210 299L209 298z"/>
<path style="fill:#9dbfdf; stroke:none;" d="M33 299L34 300L33 299z"/>
<path style="fill:#5d95ca; stroke:none;" d="M209 299L210 300L209 299M34 300L35 301L34 300z"/>
<path style="fill:#9dbfdf; stroke:none;" d="M34 301L35 302L34 301M208 301L209 302L208 301z"/>
<path style="fill:#5d95ca; stroke:none;" d="M35 302L36 303L35 302M207 302L208 303L207 302z"/>
<path style="fill:#2f77bb; stroke:none;" d="M36 303L37 304L36 303z"/>
<path style="fill:#9dbfdf; stroke:none;" d="M207 303L208 304L207 303M36 304L37 305L36 304z"/>
<path style="fill:#5d95ca; stroke:none;" d="M206 304L207 305L206 304z"/>
<path style="fill:#2f77bb; stroke:none;" d="M37 305L38 306L37 305M205 305L206 306L205 305M38 306L39 307L38 306z"/>
<path style="fill:#9dbfdf; stroke:none;" d="M205 306L206 307L205 306M38 307L39 308L38 307z"/>
<path style="fill:#5d95ca; stroke:none;" d="M204 307L205 308L204 307M39 308L40 309L39 308z"/>
<path style="fill:#2f77bb; stroke:none;" d="M203 308L202 310L203 308M40 309L41 310L40 309z"/>
<path style="fill:#9dbfdf; stroke:none;" d="M203 309L204 310L203 309M40 310L41 311L40 310M202 310L203 311L202 310z"/>
<path style="fill:#5d95ca; stroke:none;" d="M41 311L42 312L41 311M201 311L202 312L201 311M42 312L43 313L42 312z"/>
<path style="fill:#2f77bb; stroke:none;" d="M200 312L201 313L200 312M43 313L44 314L43 313z"/>
<path style="fill:#9dbfdf; stroke:none;" d="M200 313L201 314L200 313M43 314L44 315L43 314M199 314L200 315L199 314M44 315L45 316L44 315M198 315L199 316L198 315M45 316L46 317L45 316z"/>
<path style="fill:#5d95ca; stroke:none;" d="M197 316L198 317L197 316M46 317L47 318L46 317M196 317L197 318L196 317M47 318L48 319L47 318z"/>
<path style="fill:#2f77bb; stroke:none;" d="M195 318L196 319L195 318z"/>
<path style="fill:#5d95ca; stroke:none;" d="M48 319L49 320L48 319M49 320L50 321L49 320z"/>
<path style="fill:#2f77bb; stroke:none;" d="M193 320L194 321L193 320z"/>
<path style="fill:#5d95ca; stroke:none;" d="M50 321L51 322L50 321z"/>
<path style="fill:#2f77bb; stroke:none;" d="M51 322L52 323L51 322M191 322L192 323L191 322z"/>
<path style="fill:#5d95ca; stroke:none;" d="M52 323L53 324L52 323z"/>
<path style="fill:#2f77bb; stroke:none;" d="M190 323L191 324L190 323z"/>
<path style="fill:#5d95ca; stroke:none;" d="M53 324L54 325L53 324z"/>
<path style="fill:#2f77bb; stroke:none;" d="M189 324L190 325L189 324z"/>
<path style="fill:#5d95ca; stroke:none;" d="M54 325L55 326L54 325M188 325L189 326L188 325z"/>
<path style="fill:#9dbfdf; stroke:none;" d="M55 326L56 327L55 326z"/>
<path style="fill:#5d95ca; stroke:none;" d="M187 326L188 327L187 326z"/>
<path style="fill:#9dbfdf; stroke:none;" d="M56 327L57 328L56 327z"/>
<path style="fill:#5d95ca; stroke:none;" d="M186 327L187 328L186 327z"/>
<path style="fill:#9dbfdf; stroke:none;" d="M57 328L58 329L57 328M185 328L186 329L185 328z"/>
<path style="fill:#5d95ca; stroke:none;" d="M59 329L60 330L59 329z"/>
<path style="fill:#2f77bb; stroke:none;" d="M183 329L184 330L183 329z"/>
<path style="fill:#9dbfdf; stroke:none;" d="M184 329L185 330L184 329z"/>
<path style="fill:#5d95ca; stroke:none;" d="M60 330L61 331L60 330M182 330L183 331L182 330z"/>
<path style="fill:#9dbfdf; stroke:none;" d="M61 331L63 333L61 331z"/>
<path style="fill:#2f77bb; stroke:none;" d="M62 331L63 332L62 331z"/>
<path style="fill:#5d95ca; stroke:none;" d="M181 331L182 332L181 331M63 332L64 333L63 332z"/>
<path style="fill:#2f77bb; stroke:none;" d="M179 332L180 333L179 332z"/>
<path style="fill:#9dbfdf; stroke:none;" d="M180 332L181 333L180 332M64 333L65 334L64 333z"/>
<path style="fill:#5d95ca; stroke:none;" d="M178 333L179 334L178 333z"/>
<path style="fill:#9dbfdf; stroke:none;" d="M65 334L66 335L65 334z"/>
<path style="fill:#2f77bb; stroke:none;" d="M66 334L67 335L66 334M176 334L177 335L176 334z"/>
<path style="fill:#9dbfdf; stroke:none;" d="M177 334L178 335L177 334M67 335L68 336L67 335z"/>
<path style="fill:#5d95ca; stroke:none;" d="M175 335L176 336L175 335z"/>
<path style="fill:#9dbfdf; stroke:none;" d="M68 336L69 337L68 336z"/>
<path style="fill:#5d95ca; stroke:none;" d="M69 336L70 337L69 336z"/>
<path style="fill:#2f77bb; stroke:none;" d="M173 336L174 337L173 336z"/>
<path style="fill:#9dbfdf; stroke:none;" d="M174 336L175 337L174 336M70 337L71 338L70 337z"/>
<path style="fill:#2f77bb; stroke:none;" d="M71 337L72 338L71 337z"/>
<path style="fill:#9dbfdf; stroke:none;" d="M172 337L173 338L172 337z"/>
<path style="fill:#5d95ca; stroke:none;" d="M72 338L73 339L72 338z"/>
<path style="fill:#2f77bb; stroke:none;" d="M73 338L74 339L73 338z"/>
<path style="fill:#5d95ca; stroke:none;" d="M170 338L171 339L170 338M74 339L75 340L74 339z"/>
<path style="fill:#2f77bb; stroke:none;" d="M75 339L76 340L75 339z"/>
<path style="fill:#5d95ca; stroke:none;" d="M168 339L169 340L168 339z"/>
<path style="fill:#9dbfdf; stroke:none;" d="M169 339L170 340L169 339z"/>
<path style="fill:#5d95ca; stroke:none;" d="M76 340L77 341L76 340z"/>
<path style="fill:#2f77bb; stroke:none;" d="M166 340L167 341L166 340z"/>
<path style="fill:#9dbfdf; stroke:none;" d="M167 340L168 341L167 340M77 341L78 342L77 341z"/>
<path style="fill:#5d95ca; stroke:none;" d="M78 341L79 342L78 341z"/>
<path style="fill:#2f77bb; stroke:none;" d="M79 341L80 342L79 341z"/>
<path style="fill:#5d95ca; stroke:none;" d="M164 341L165 342L164 341z"/>
<path style="fill:#9dbfdf; stroke:none;" d="M165 341L166 342L165 341M80 342L81 343L80 342z"/>
<path style="fill:#5d95ca; stroke:none;" d="M162 342L163 343L162 342z"/>
<path style="fill:#9dbfdf; stroke:none;" d="M82 343L83 344L82 343z"/>
<path style="fill:#2f77bb; stroke:none;" d="M83 343L84 344L83 343M159 343L160 344L159 343z"/>
<path style="fill:#5d95ca; stroke:none;" d="M160 343L161 344L160 343z"/>
<path style="fill:#9dbfdf; stroke:none;" d="M84 344L85 345L84 344z"/>
<path style="fill:#5d95ca; stroke:none;" d="M85 344L86 345L85 344z"/>
<path style="fill:#2f77bb; stroke:none;" d="M86 344L87 345L86 344z"/>
<path style="fill:#5d95ca; stroke:none;" d="M157 344L158 345L157 344z"/>
<path style="fill:#9dbfdf; stroke:none;" d="M158 344L159 345L158 344M87 345L88 346L87 345z"/>
<path style="fill:#2f77bb; stroke:none;" d="M88.6667 345.333L89.3333 345.667L88.6667 345.333M154 345L155 346L154 345z"/>
<path style="fill:#9dbfdf; stroke:none;" d="M155 345L156 346L155 345M90 346L91 347L90 346z"/>
<path style="fill:#5d95ca; stroke:none;" d="M91 346L92 347L91 346z"/>
<path style="fill:#2f77bb; stroke:none;" d="M92 346L93 347L92 346z"/>
<path style="fill:#5d95ca; stroke:none;" d="M151 346L152 347L151 346z"/>
<path style="fill:#9dbfdf; stroke:none;" d="M152.667 346.333L153.333 346.667L152.667 346.333M93 347L94 348L93 347z"/>
<path style="fill:#5d95ca; stroke:none;" d="M94 347L95 348L94 347z"/>
<path style="fill:#2f77bb; stroke:none;" d="M95 347L96 348L95 347z"/>
<path style="fill:#5d95ca; stroke:none;" d="M148 347L149 348L148 347z"/>
<path style="fill:#9dbfdf; stroke:none;" d="M149 347L150 348L149 347M96.6667 348.333L97.3333 348.667L96.6667 348.333z"/>
<path style="fill:#5d95ca; stroke:none;" d="M98 348L99 349L98 348z"/>
<path style="fill:#2f77bb; stroke:none;" d="M99.6667 348.333L100.333 348.667L99.6667 348.333M143 348L144 349L143 348z"/>
<path style="fill:#5d95ca; stroke:none;" d="M144 348L145 349L144 348z"/>
<path style="fill:#9dbfdf; stroke:none;" d="M145.667 348.333L146.333 348.667L145.667 348.333M104 349L104 350L139 350L104 349z"/>
</svg>
